<?xml version="1.0" encoding="UTF-8"?>
<svg id="Layer_1" xmlns="http://www.w3.org/2000/svg" version="1.1" viewBox="0 0 792.78 360.54">
  <!-- Generator: Adobe Illustrator 30.1.0, SVG Export Plug-In . SVG Version: 2.1.1 Build 136)  -->
  <defs>
    <style>
      .st0 {
        fill: none;
      }

      .st1 {
        fill: #b08d35;
      }

      .st2 {
        fill: #034ea2;
      }
    </style>
  </defs>
  <g>
    <rect class="st1" x="45.34" y="268.12" width="702.1" height="21.02" transform="translate(792.78 557.26) rotate(180)"/>
    <path class="st0" d="M204.68,179.35h-114.01v43.34h114.01c12,0,21.67-10,21.67-21.67s-9.67-21.67-21.67-21.67Z"/>
    <path class="st2" d="M90.67,90.68h99.01c12,0,21.67,9.67,21.67,21.66s-9.67,21.67-21.67,21.67H45.34v133.68h159.35c37,0,67.01-30,67.01-66.67,0-20.67-9.67-40-25.67-52.67,7-11.34,10.33-23.67,10.33-36.01,0-36.67-30-67-66.67-67H46.85l.04.06c-.07.36-.12.62-1.55.71v80.04h45.18l.16-35.48ZM204.68,222.68h-114.01v-43.34h114.01c12,0,21.67,9.67,21.67,21.67s-9.67,21.67-21.67,21.67Z"/>
    <path class="st2" d="M282.95,267.69v-45.34h68.01c12.67,0,22.67-10,22.67-22.67v-109.34h-45.34v-45h90.67v154.35c0,37.67-30.33,68-68,68h-68.01Z"/>
    <path class="st2" d="M449.73,267.69V45.34h45.34v222.35h-45.34Z"/>
    <path class="st2" d="M566.42,201.35v66.34h-45.34V45.34l113.01,189.35,113.34-189.35v222.35h-45.34v-66.34l-68,113.67-67.67-113.67Z"/>
  </g>
  <rect class="st0" y="186.69" width="45.34" height="45.34"/>
  <rect class="st0" x="607.4" y="315.02" width="45.34" height="45.34"/>
  <rect class="st0" x="747.44" y="164.02" width="45.34" height="45.34"/>
  <rect class="st0" x="350.96" width="45.34" height="45.34"/>
</svg>