<svg width="494" height="230" viewBox="0 0 494 230" fill="none" xmlns="http://www.w3.org/2000/svg">
<g clip-path="url(#clip0_65_335)">
<path d="M0 62.4398V0.839844H18.9C24.86 0.839844 29.59 2.25984 33.08 5.09984C36.57 7.93984 38.31 11.8098 38.31 16.6998C38.31 19.4598 37.69 21.8498 36.45 23.8698C35.21 25.8898 33.54 27.4698 31.43 28.5898C29.32 29.7198 26.89 30.2798 24.13 30.2798V29.9398C27.11 29.8798 29.77 30.4298 32.1 31.5898C34.43 32.7398 36.29 34.4498 37.67 36.6898C39.05 38.9398 39.74 41.6698 39.74 44.8698C39.74 48.4098 38.92 51.5098 37.29 54.1498C35.66 56.7898 33.37 58.8298 30.41 60.2698C27.46 61.6998 23.93 62.4198 19.82 62.4198H0V62.4398ZM10.29 26.2398H18.81C21.57 26.2398 23.75 25.4998 25.35 23.9998C26.95 22.5098 27.76 20.4698 27.76 17.8798C27.76 15.2898 26.96 13.2698 25.35 11.8098C23.75 10.3498 21.54 9.61984 18.73 9.61984H10.29V26.2398ZM10.29 53.6598H19.15C22.24 53.6598 24.68 52.8298 26.45 51.1698C28.22 49.5098 29.11 47.2498 29.11 44.3798C29.11 41.5098 28.22 39.1898 26.45 37.4198C24.68 35.6498 22.24 34.7598 19.15 34.7598H10.29V53.6598Z" fill="#EB5753"/>
<path d="M48.0601 62.4398L63.5901 0.839844H77.1801L92.7901 62.4298H81.9901L78.6101 47.4998H62.2401L58.8701 62.4298H48.0701L48.0601 62.4398ZM64.1801 38.8998H76.6701L72.9601 22.3598C72.3401 19.5998 71.8101 17.1198 71.3601 14.8898C70.9101 12.6698 70.6001 11.0498 70.4301 10.0398C70.2601 11.0498 69.9701 12.6698 69.5401 14.8898C69.1201 17.1098 68.5701 19.5698 67.8901 22.2698L64.1801 38.8898V38.8998Z" fill="#EB5753"/>
<path d="M101.73 62.4398V0.839844H114.64L131.77 50.6198C131.6 48.8198 131.42 46.6998 131.22 44.2498C131.02 41.7998 130.87 39.2998 130.76 36.7398C130.65 34.1798 130.59 31.9498 130.59 30.0298V0.839844H140.21V62.4298H127.3L110.34 12.6498C110.45 14.2798 110.59 16.2498 110.76 18.5598C110.93 20.8698 111.07 23.2298 111.18 25.6498C111.29 28.0698 111.35 30.2898 111.35 32.3198V62.4398H101.73Z" fill="#EB5753"/>
<path d="M171.52 63.2802C167.58 63.2802 164.14 62.5302 161.18 61.0402C158.23 59.5502 155.95 57.4402 154.35 54.7102C152.75 51.9802 151.94 48.7602 151.94 45.0502V18.2202C151.94 14.4502 152.74 11.2202 154.35 8.52024C155.95 5.82024 158.23 3.72023 161.18 2.23023C164.13 0.740234 167.58 -0.00976562 171.52 -0.00976562C175.46 -0.00976562 178.96 0.740234 181.86 2.23023C184.76 3.72023 187.02 5.82024 188.65 8.52024C190.28 11.2202 191.1 14.4602 191.1 18.2202H180.47C180.47 15.3002 179.68 13.0702 178.11 11.5502C176.53 10.0302 174.34 9.27024 171.53 9.27024C168.72 9.27024 166.44 10.0302 164.86 11.5502C163.29 13.0702 162.5 15.2602 162.5 18.1302V45.0502C162.5 47.9202 163.29 50.1402 164.86 51.7202C166.43 53.3002 168.66 54.0802 171.53 54.0802C174.4 54.0802 176.54 53.2902 178.11 51.7202C179.68 50.1502 180.47 47.9202 180.47 45.0502V38.8102H170.01V29.7002H191.1V45.0602C191.1 48.7702 190.28 51.9902 188.65 54.7202C187.02 57.4502 184.75 59.5602 181.86 61.0502C178.96 62.5402 175.52 63.2902 171.52 63.2902V63.2802Z" fill="#EB5753"/>
<path d="M203.72 62.4398V0.839844H214.27V52.6498H240.43V62.4398H203.73H203.72Z" fill="#EB5753"/>
<path d="M250.26 62.4398L265.79 0.839844H279.38L294.99 62.4298H284.19L280.81 47.4998H264.44L261.07 62.4298H250.27L250.26 62.4398ZM266.38 38.8998H278.87L275.16 22.3598C274.54 19.5998 274.01 17.1198 273.56 14.8898C273.11 12.6698 272.8 11.0498 272.63 10.0398C272.46 11.0498 272.17 12.6698 271.74 14.8898C271.32 17.1098 270.77 19.5698 270.09 22.2698L266.38 38.8898V38.8998Z" fill="#EB5753"/>
<path d="M303.77 62.4398V0.839844H322.08C326.24 0.839844 329.86 1.62984 332.92 3.19984C335.99 4.77984 338.36 6.99984 340.05 9.86984C341.74 12.7398 342.58 16.1398 342.58 20.0798V43.1098C342.58 46.9898 341.74 50.3798 340.05 53.2798C338.36 56.1798 335.99 58.4298 332.92 60.0298C329.85 61.6298 326.24 62.4298 322.08 62.4298H303.77V62.4398ZM314.31 52.7398H322.07C325.11 52.7398 327.52 51.8798 329.33 50.1698C331.13 48.4498 332.03 46.1098 332.03 43.1198V20.0898C332.03 17.1698 331.13 14.8498 329.33 13.1298C327.53 11.4098 325.11 10.5598 322.07 10.5598H314.31V52.7498V52.7398Z" fill="#EB5753"/>
<path d="M355.25 62.4398V0.839844H392.21V10.0398H365.63V26.0698H389.26V35.1798H365.63V53.2398H392.21V62.4398H355.25Z" fill="#EB5753"/>
<path d="M424.44 63.2798C420.22 63.2798 416.56 62.5798 413.47 61.1698C410.38 59.7598 408 57.7498 406.34 55.1398C404.68 52.5198 403.82 49.4398 403.77 45.8998H414.32C414.32 48.4298 415.23 50.4098 417.06 51.8498C418.89 53.2798 421.38 53.9998 424.53 53.9998C427.68 53.9998 429.94 53.2998 431.66 51.8898C433.37 50.4798 434.23 48.5398 434.23 46.0698C434.23 43.9898 433.62 42.1798 432.42 40.6298C431.21 39.0798 429.48 38.0298 427.23 37.4698L420.14 35.5298C415.3 34.2898 411.58 32.0698 408.96 28.8598C406.34 25.6498 405.04 21.7698 405.04 17.2198C405.04 13.7298 405.83 10.6998 407.4 8.10977C408.97 5.51977 411.21 3.52977 414.11 2.11977C417.01 0.709766 420.42 0.00976562 424.36 0.00976562C430.32 0.00976562 435.05 1.53977 438.54 4.60977C442.03 7.67977 443.8 11.7998 443.85 16.9698H433.3C433.3 14.5498 432.51 12.6498 430.94 11.2698C429.37 9.88977 427.14 9.19977 424.27 9.19977C421.4 9.19977 419.38 9.84977 417.86 11.1398C416.34 12.4298 415.58 14.2598 415.58 16.6198C415.58 18.7598 416.16 20.5698 417.31 22.0598C418.46 23.5498 420.14 24.6098 422.33 25.2198L429.67 27.2398C434.56 28.4798 438.3 30.6898 440.89 33.8598C443.48 37.0398 444.77 40.9598 444.77 45.6298C444.77 49.1198 443.93 52.1998 442.24 54.8698C440.55 57.5398 438.19 59.6098 435.15 61.0698C432.11 62.5298 428.54 63.2598 424.43 63.2598L424.44 63.2798Z" fill="#EB5753"/>
<path d="M456.01 62.4398V0.839844H466.56V25.5598H483.1V0.839844H493.65V62.4298H483.1V35.3498H466.56V62.4298H456.01V62.4398Z" fill="#EB5753"/>
<path d="M76.3 228.34V166.75H95.79C99.9 166.75 103.45 167.51 106.46 169.03C109.47 170.55 111.82 172.67 113.51 175.4C115.2 178.13 116.04 181.35 116.04 185.06C116.04 189.11 115.01 192.68 112.96 195.77C110.91 198.86 108.14 201.06 104.65 202.35L116.88 228.34H105.07L94.35 203.87H86.84V228.34H76.29H76.3ZM86.84 194.59H95.78C98.76 194.59 101.1 193.78 102.78 192.14C104.46 190.5 105.31 188.26 105.31 185.39C105.31 182.52 104.47 180.17 102.78 178.51C101.09 176.85 98.76 176.02 95.78 176.02H86.84V194.58V194.59Z" fill="#1E1E1E"/>
<path d="M172.3 229.181C168.36 229.181 164.92 228.431 161.96 226.941C159.01 225.451 156.73 223.341 155.13 220.611C153.53 217.881 152.72 214.661 152.72 210.951V184.121C152.72 180.351 153.52 177.121 155.13 174.421C156.74 171.721 159.01 169.631 161.96 168.131C164.91 166.641 168.36 165.891 172.3 165.891C176.24 165.891 179.74 166.641 182.64 168.131C185.54 169.621 187.8 171.721 189.43 174.421C191.06 177.121 191.88 180.351 191.88 184.121H181.25C181.25 181.201 180.46 178.971 178.89 177.451C177.31 175.931 175.12 175.171 172.31 175.171C169.5 175.171 167.22 175.931 165.64 177.451C164.07 178.971 163.28 181.161 163.28 184.031V210.951C163.28 213.821 164.07 216.031 165.64 217.571C167.21 219.121 169.44 219.891 172.31 219.891C175.18 219.891 177.32 219.121 178.89 217.571C180.46 216.021 181.25 213.821 181.25 210.951H191.88C191.88 214.611 191.06 217.811 189.43 220.571C187.8 223.331 185.53 225.451 182.64 226.941C179.74 228.431 176.3 229.181 172.3 229.181Z" fill="#1E1E1E"/>
<path d="M229.2 228.34V166.75H239.75V191.47H256.29V166.75H266.84V228.34H256.29V201.26H239.75V228.34H229.2Z" fill="#1E1E1E"/>
<path d="M306.01 228.34V219.06H318.41V176.03H306.01V166.75H341.45V176.03H329.05V219.06H341.45V228.34H306.01Z" fill="#1E1E1E"/>
<path d="M392.61 228.34L377.08 166.75H388.05L397.33 206.91C397.84 208.88 398.31 210.99 398.76 213.24C399.21 215.49 399.55 217.32 399.77 218.72C399.99 217.31 400.3 215.49 400.7 213.24C401.09 210.99 401.51 208.85 401.97 206.83L411.17 166.75H421.8L406.27 228.34H392.6H392.61Z" fill="#1E1E1E"/>
<path d="M456.68 228.34V166.75H493.64V175.95H467.06V191.98H490.69V201.09H467.06V219.15H493.64V228.35H456.68V228.34Z" fill="#1E1E1E"/>
<path d="M24.25 206.26C26.75 211.97 29.2 217.56 31.68 223.24C27.81 224.94 24.01 226.61 20.08 228.33C17.6 222.68 15.14 217.09 12.62 211.36C8.39 215.4 4.27 219.34 0 223.42V166.74C13.97 179.59 27.75 192.26 41.75 205.14C35.76 205.53 30.1 205.89 24.25 206.27V206.26Z" fill="#EB5753"/>
<path d="M0 145.391V83.8008H20.5C24.61 83.8008 28.19 84.5908 31.26 86.1608C34.33 87.7408 36.7 89.9408 38.39 92.7808C40.08 95.6208 40.92 98.9508 40.92 102.781C40.92 106.611 40.06 109.871 38.35 112.741C36.63 115.611 34.26 117.831 31.22 119.411C28.18 120.981 24.61 121.771 20.5 121.771H10.54V145.401H0V145.391ZM10.55 112.231H20.51C23.43 112.231 25.78 111.371 27.56 109.661C29.33 107.941 30.22 105.651 30.22 102.781C30.22 99.9108 29.33 97.5508 27.56 95.8608C25.79 94.1708 23.44 93.3308 20.51 93.3308H10.55V112.231Z" fill="#1E1E1E"/>
<path d="M75.4602 145.391V83.8008H94.9502C99.0602 83.8008 102.61 84.5608 105.62 86.0808C108.63 87.6008 110.98 89.7208 112.67 92.4508C114.36 95.1808 115.2 98.4008 115.2 102.111C115.2 106.161 114.17 109.731 112.12 112.821C110.07 115.911 107.3 118.111 103.81 119.401L116.04 145.391H104.23L93.5102 120.921H86.0002V145.391H75.4502H75.4602ZM86.0102 111.641H94.9502C97.9302 111.641 100.27 110.831 101.95 109.191C103.64 107.561 104.48 105.311 104.48 102.441C104.48 99.5708 103.64 97.2208 101.95 95.5608C100.26 93.9008 97.9302 93.0708 94.9502 93.0708H86.0102V111.631V111.641Z" fill="#1E1E1E"/>
<path d="M241.02 145.391V93.581H224.9V83.791H267.76V93.581H251.64V145.391H241.01H241.02Z" fill="#1E1E1E"/>
<path d="M303.15 145.391V83.8008H340.11V93.0008H313.53V109.031H337.16V118.141H313.53V136.201H340.11V145.401H303.15V145.391Z" fill="#1E1E1E"/>
<path d="M397.08 146.231C392.86 146.231 389.2 145.531 386.11 144.121C383.02 142.711 380.64 140.701 378.98 138.091C377.32 135.481 376.46 132.401 376.41 128.851H386.96C386.96 131.381 387.87 133.361 389.7 134.801C391.53 136.231 394.02 136.951 397.17 136.951C400.32 136.951 402.58 136.251 404.3 134.841C406.01 133.431 406.87 131.491 406.87 129.021C406.87 126.941 406.26 125.131 405.06 123.581C403.85 122.031 402.12 120.981 399.87 120.421L392.78 118.481C387.94 117.241 384.22 115.021 381.6 111.811C378.98 108.601 377.68 104.721 377.68 100.171C377.68 96.6809 378.47 93.6509 380.04 91.0609C381.61 88.4709 383.85 86.4809 386.75 85.0709C389.65 83.6609 393.06 82.9609 397 82.9609C402.96 82.9609 407.69 84.4909 411.18 87.5609C414.67 90.6309 416.44 94.7509 416.49 99.9209H405.94C405.94 97.5009 405.15 95.6009 403.58 94.2309C402.01 92.8509 399.78 92.1609 396.91 92.1609C394.04 92.1609 392.02 92.8109 390.5 94.1009C388.98 95.3909 388.22 97.2209 388.22 99.5809C388.22 101.721 388.8 103.531 389.95 105.021C391.1 106.511 392.78 107.571 394.97 108.181L402.31 110.211C407.2 111.451 410.94 113.661 413.53 116.831C416.12 120.011 417.41 123.931 417.41 128.601C417.41 132.091 416.57 135.171 414.88 137.841C413.19 140.511 410.83 142.581 407.79 144.041C404.75 145.501 401.18 146.231 397.07 146.231H397.08Z" fill="#1E1E1E"/>
<path d="M466.89 145.391V93.581H450.77V83.791H493.63V93.581H477.51V145.391H466.88H466.89Z" fill="#1E1E1E"/>
<path d="M171.04 145.391C162.54 145.391 155.26 142.361 149.2 136.301C143.15 130.241 140.12 122.961 140.12 114.461C140.12 105.961 143.15 98.8208 149.2 92.8208C155.26 86.8108 162.54 83.8008 171.04 83.8008C179.54 83.8008 186.5 86.8108 192.69 92.8208C198.87 98.8308 201.97 106.051 201.97 114.461C201.97 120.131 200.53 125.311 197.65 129.991C194.77 134.681 191.01 138.411 186.37 141.201C181.73 143.991 176.62 145.391 171.03 145.391H171.04Z" fill="#EB5753"/>
</g>
<defs>
<clipPath id="clip0_65_335">
<rect width="493.64" height="229.18" fill="white"/>
</clipPath>
</defs>
</svg>
