<svg width="298" height="274" viewBox="0 0 298 274" fill="none" xmlns="http://www.w3.org/2000/svg">
<path fill-rule="evenodd" clip-rule="evenodd" d="M6.37412 268.207V268.607H0.00784025V268.207H0.533137C1.15252 268.207 1.59157 268.027 1.87382 267.674C2.0463 267.439 2.13255 266.882 2.13255 265.989V256.376C2.13255 255.624 2.08551 255.13 1.99142 254.887C1.91302 254.706 1.76406 254.55 1.53669 254.416C1.21524 254.244 0.878108 254.158 0.525297 254.158H0V253.758H6.36628V254.158H5.83314C5.22945 254.158 4.79039 254.338 4.50814 254.691C4.32782 254.926 4.23373 255.483 4.23373 256.376V265.989C4.23373 266.741 4.28078 267.235 4.37486 267.478C4.44542 267.659 4.60223 267.815 4.83743 267.949C5.15104 268.121 5.48033 268.207 5.83314 268.207H6.36628H6.37412Z" fill="black"/>
<path fill-rule="evenodd" clip-rule="evenodd" d="M16.4802 260.382C17.6562 258.979 18.7695 258.281 19.828 258.281C20.3768 258.281 20.8472 258.422 21.2392 258.689C21.6391 258.963 21.9448 259.41 22.18 260.037C22.3368 260.477 22.4152 261.151 22.4152 262.052V266.341C22.4152 266.968 22.4701 267.399 22.572 267.627C22.6505 267.807 22.7837 267.948 22.9562 268.05C23.1365 268.152 23.4658 268.207 23.9441 268.207V268.607H18.9891V268.207H19.2007C19.6633 268.207 19.9926 268.136 20.1729 267.995C20.3533 267.854 20.4865 267.643 20.5571 267.368C20.5885 267.258 20.6041 266.913 20.6041 266.341V262.209C20.6041 261.292 20.4865 260.626 20.2513 260.21C20.0161 259.794 19.6241 259.591 19.0596 259.591C18.1972 259.591 17.3348 260.069 16.4802 261.018V266.341C16.4802 267.015 16.5194 267.431 16.5978 267.595C16.6997 267.807 16.8408 267.956 17.0212 268.058C17.2015 268.152 17.5621 268.207 18.1109 268.207V268.607H13.1324V268.207H13.3519C13.8615 268.207 14.2065 268.082 14.3868 267.823C14.5672 267.564 14.6534 267.07 14.6534 266.349V262.625C14.6534 261.425 14.6299 260.688 14.575 260.429C14.5201 260.163 14.4339 259.983 14.3241 259.889C14.2143 259.794 14.0575 259.747 13.8694 259.747C13.6655 259.747 13.4225 259.802 13.1402 259.912L12.9756 259.512L16.0019 258.281H16.4723V260.382H16.4802Z" fill="black"/>
<path fill-rule="evenodd" clip-rule="evenodd" d="M37.1707 258.281V261.692H36.8101C36.5356 260.625 36.175 259.896 35.7438 259.512C35.3126 259.128 34.7637 258.932 34.0895 258.932C33.5799 258.932 33.1722 259.065 32.8586 259.332C32.545 259.598 32.3882 259.896 32.3882 260.226C32.3882 260.633 32.5058 260.986 32.7331 261.276C32.9605 261.574 33.4152 261.896 34.1052 262.233L35.7046 263.009C37.1864 263.73 37.9234 264.687 37.9234 265.871C37.9234 266.78 37.5784 267.517 36.8885 268.074C36.1985 268.63 35.4302 268.913 34.5756 268.913C33.964 268.913 33.2584 268.803 32.4744 268.591C32.2313 268.521 32.0353 268.489 31.8785 268.489C31.7139 268.489 31.5806 268.576 31.4865 268.756H31.1259V265.173H31.4865C31.6904 266.2 32.0824 266.968 32.6626 267.486C33.2349 268.003 33.8856 268.262 34.5991 268.262C35.1009 268.262 35.5086 268.113 35.83 267.823C36.1515 267.525 36.3083 267.172 36.3083 266.757C36.3083 266.255 36.1279 265.831 35.7751 265.486C35.4223 265.141 34.7167 264.71 33.6504 264.193C32.592 263.668 31.9021 263.197 31.5728 262.774C31.2513 262.358 31.0867 261.833 31.0867 261.198C31.0867 260.375 31.3689 259.685 31.9334 259.128C32.4979 258.571 33.2271 258.297 34.1208 258.297C34.5207 258.297 34.9911 258.383 35.5556 258.556C35.9241 258.665 36.175 258.72 36.2926 258.72C36.4102 258.72 36.5043 258.697 36.567 258.642C36.6297 258.587 36.7081 258.477 36.7944 258.297H37.155L37.1707 258.281Z" fill="black"/>
<path fill-rule="evenodd" clip-rule="evenodd" d="M44.6424 259.559L47.7237 258.328H48.1392V260.649C48.6566 259.771 49.1741 259.159 49.6994 258.807C50.2247 258.454 50.7735 258.281 51.3537 258.281C52.3651 258.281 53.204 258.673 53.8782 259.465C54.7015 260.429 55.117 261.684 55.117 263.228C55.117 264.961 54.6231 266.388 53.6274 267.517C52.812 268.442 51.7771 268.905 50.5383 268.905C49.9973 268.905 49.5269 268.826 49.1349 268.677C48.8448 268.568 48.5155 268.356 48.147 268.027V271.084C48.147 271.774 48.1862 272.213 48.2725 272.402C48.3509 272.59 48.5077 272.739 48.7115 272.848C48.9154 272.958 49.2995 273.013 49.8484 273.013V273.413H44.5797V273.013H44.8541C45.254 273.013 45.5989 272.943 45.889 272.786C46.0302 272.707 46.1399 272.574 46.2105 272.394C46.2889 272.221 46.3281 271.759 46.3281 271.037V261.511C46.3281 260.869 46.2967 260.461 46.2418 260.288C46.1791 260.116 46.085 259.983 45.9596 259.896C45.8342 259.81 45.6617 259.763 45.4421 259.763C45.2697 259.763 45.0423 259.818 44.7757 259.92L44.6424 259.559ZM48.1392 261.3V265.047C48.1392 265.863 48.1705 266.396 48.2333 266.647C48.3352 267.07 48.5861 267.447 48.9859 267.768C49.3858 268.089 49.8876 268.246 50.4913 268.246C51.2204 268.246 51.8163 267.964 52.2632 267.392C52.859 266.647 53.1491 265.596 53.1491 264.24C53.1491 262.703 52.812 261.519 52.1377 260.696C51.6673 260.124 51.1106 259.841 50.4677 259.841C50.1149 259.841 49.77 259.928 49.425 260.1C49.1663 260.233 48.7272 260.625 48.1235 261.292L48.1392 261.3Z" fill="black"/>
<path fill-rule="evenodd" clip-rule="evenodd" d="M65.0741 253.035C65.3799 253.035 65.6386 253.145 65.8581 253.357C66.0698 253.576 66.1796 253.835 66.1796 254.141C66.1796 254.446 66.0698 254.713 65.8581 254.933C65.6386 255.152 65.3799 255.262 65.0741 255.262C64.7684 255.262 64.5018 255.152 64.2823 254.933C64.0627 254.713 63.953 254.454 63.953 254.141C63.953 253.827 64.0627 253.576 64.2744 253.357C64.4939 253.145 64.7527 253.035 65.0663 253.035H65.0741ZM65.9758 258.28V266.348C65.9758 266.975 66.0228 267.383 66.1169 267.595C66.2031 267.806 66.3442 267.955 66.5167 268.057C66.6971 268.159 67.0263 268.214 67.4968 268.214V268.614H62.6358V268.214C63.1219 268.214 63.4512 268.167 63.6158 268.073C63.7805 267.979 63.9138 267.822 64.0157 267.602C64.1098 267.383 64.1647 266.967 64.1647 266.348V262.467C64.1647 261.385 64.1333 260.687 64.0706 260.366C64.0157 260.131 63.9373 259.974 63.8275 259.888C63.7178 259.793 63.5688 259.746 63.3806 259.746C63.1768 259.746 62.9259 259.801 62.6358 259.911L62.479 259.511L65.4975 258.28H65.9758Z" fill="black"/>
<path fill-rule="evenodd" clip-rule="evenodd" d="M77.6263 258.281V260.547C78.4574 259.042 79.312 258.281 80.1901 258.281C80.5821 258.281 80.9114 258.407 81.178 258.65C81.4367 258.893 81.57 259.175 81.57 259.497C81.57 259.787 81.4759 260.03 81.2877 260.226C81.0996 260.422 80.8722 260.524 80.6135 260.524C80.3547 260.524 80.0725 260.398 79.7589 260.139C79.4453 259.888 79.2022 259.755 79.0533 259.755C78.92 259.755 78.7788 259.834 78.6299 259.975C78.3084 260.273 77.9635 260.767 77.6185 261.457V266.255C77.6185 266.811 77.689 267.235 77.8302 267.525C77.9243 267.721 78.0889 267.886 78.3319 268.011C78.575 268.144 78.92 268.207 79.3669 268.207V268.607H74.2315V268.207C74.7411 268.207 75.1174 268.129 75.3605 267.972C75.5408 267.854 75.6741 267.666 75.7447 267.415C75.7839 267.29 75.7995 266.937 75.7995 266.357V262.476C75.7995 261.308 75.776 260.618 75.729 260.398C75.6819 260.179 75.5957 260.014 75.4703 259.912C75.3448 259.81 75.1802 259.755 74.992 259.755C74.7646 259.755 74.5137 259.81 74.2237 259.92L74.1139 259.52L77.1481 258.289H77.6106L77.6263 258.281Z" fill="black"/>
<path fill-rule="evenodd" clip-rule="evenodd" d="M90.6491 253.035C90.9548 253.035 91.2136 253.145 91.4331 253.357C91.6448 253.576 91.7545 253.835 91.7545 254.141C91.7545 254.446 91.6448 254.713 91.4331 254.933C91.2136 255.152 90.9548 255.262 90.6491 255.262C90.3433 255.262 90.0767 255.152 89.8572 254.933C89.6377 254.713 89.5279 254.454 89.5279 254.141C89.5279 253.827 89.6377 253.576 89.8494 253.357C90.0689 253.145 90.3276 253.035 90.6412 253.035H90.6491ZM91.5507 258.28V266.348C91.5507 266.975 91.5977 267.383 91.6918 267.595C91.7781 267.806 91.9192 267.955 92.0917 268.057C92.272 268.159 92.6013 268.214 93.0717 268.214V268.614H88.2108V268.214C88.6969 268.214 89.0261 268.167 89.1908 268.073C89.3554 267.979 89.4887 267.822 89.5906 267.602C89.6847 267.383 89.7396 266.967 89.7396 266.348V262.467C89.7396 261.385 89.7082 260.687 89.6455 260.366C89.5906 260.131 89.5122 259.974 89.4025 259.888C89.2927 259.793 89.1437 259.746 88.9556 259.746C88.7517 259.746 88.5008 259.801 88.2108 259.911L88.054 259.511L91.0724 258.28H91.5507Z" fill="black"/>
<path fill-rule="evenodd" clip-rule="evenodd" d="M103.178 260.382C104.354 258.979 105.467 258.281 106.525 258.281C107.074 258.281 107.545 258.422 107.937 258.689C108.337 258.963 108.642 259.41 108.878 260.037C109.034 260.477 109.113 261.151 109.113 262.052V266.341C109.113 266.968 109.168 267.399 109.27 267.627C109.348 267.807 109.481 267.948 109.654 268.05C109.834 268.152 110.163 268.207 110.642 268.207V268.607H105.687V268.207H105.898C106.361 268.207 106.69 268.136 106.87 267.995C107.051 267.854 107.184 267.643 107.255 267.368C107.286 267.258 107.302 266.913 107.302 266.341V262.209C107.302 261.292 107.184 260.626 106.949 260.21C106.714 259.794 106.322 259.591 105.757 259.591C104.895 259.591 104.032 260.069 103.178 261.018V266.341C103.178 267.015 103.217 267.431 103.295 267.595C103.397 267.807 103.538 267.956 103.719 268.058C103.899 268.152 104.26 268.207 104.808 268.207V268.607H99.8299V268.207H100.049C100.559 268.207 100.904 268.082 101.084 267.823C101.265 267.564 101.351 267.07 101.351 266.349V262.625C101.351 261.425 101.327 260.688 101.273 260.429C101.218 260.163 101.131 259.983 101.022 259.889C100.912 259.794 100.755 259.747 100.567 259.747C100.363 259.747 100.12 259.802 99.8377 259.912L99.6731 259.512L102.699 258.281H103.17V260.382H103.178Z" fill="black"/>
<path fill-rule="evenodd" clip-rule="evenodd" d="M120.073 264.938C119.462 264.64 118.991 264.224 118.662 263.683C118.341 263.15 118.176 262.562 118.176 261.911C118.176 260.923 118.552 260.069 119.297 259.355C120.042 258.642 120.999 258.281 122.159 258.281C123.108 258.281 123.939 258.516 124.636 258.979H126.753C127.067 258.979 127.247 258.979 127.302 259.003C127.357 259.018 127.388 259.05 127.412 259.097C127.459 259.167 127.482 259.277 127.482 259.449C127.482 259.638 127.467 259.771 127.428 259.849C127.412 259.881 127.365 259.912 127.318 259.936C127.263 259.959 127.083 259.967 126.769 259.967H125.468C125.875 260.492 126.079 261.159 126.079 261.982C126.079 262.915 125.726 263.715 125.013 264.373C124.299 265.032 123.343 265.369 122.143 265.369C121.649 265.369 121.148 265.29 120.63 265.149C120.317 265.432 120.097 265.675 119.979 265.878C119.87 266.09 119.815 266.263 119.815 266.412C119.815 266.537 119.877 266.655 119.995 266.772C120.12 266.89 120.356 266.976 120.701 267.023C120.905 267.054 121.414 267.086 122.237 267.102C123.743 267.141 124.715 267.196 125.162 267.266C125.844 267.36 126.385 267.611 126.785 268.019C127.192 268.427 127.396 268.928 127.396 269.532C127.396 270.355 127.012 271.131 126.236 271.853C125.099 272.919 123.609 273.452 121.783 273.452C120.371 273.452 119.188 273.131 118.215 272.503C117.667 272.135 117.392 271.759 117.392 271.367C117.392 271.194 117.431 271.014 117.51 270.841C117.635 270.575 117.894 270.198 118.278 269.712C118.333 269.642 118.701 269.25 119.391 268.528C119.007 268.301 118.748 268.097 118.592 267.917C118.435 267.737 118.356 267.533 118.356 267.305C118.356 267.047 118.458 266.749 118.67 266.404C118.874 266.059 119.352 265.573 120.097 264.938H120.073ZM121.979 258.822C121.438 258.822 120.991 259.034 120.63 259.465C120.269 259.896 120.081 260.555 120.081 261.441C120.081 262.593 120.324 263.479 120.826 264.114C121.202 264.593 121.681 264.836 122.261 264.836C122.841 264.836 123.272 264.632 123.625 264.216C123.978 263.801 124.158 263.15 124.158 262.264C124.158 261.112 123.907 260.202 123.406 259.551C123.029 259.073 122.559 258.83 121.979 258.83V258.822ZM119.972 268.615C119.627 268.983 119.368 269.328 119.195 269.65C119.023 269.971 118.937 270.269 118.937 270.536C118.937 270.881 119.148 271.186 119.572 271.453C120.293 271.908 121.351 272.127 122.723 272.127C124.096 272.127 125.005 271.892 125.624 271.429C126.252 270.967 126.557 270.473 126.557 269.948C126.557 269.563 126.369 269.297 126.001 269.14C125.617 268.983 124.872 268.889 123.751 268.858C122.112 268.811 120.85 268.732 119.972 268.615Z" fill="black"/>
<path fill-rule="evenodd" clip-rule="evenodd" d="M151.576 254.558V260.43H154.845C155.692 260.43 156.256 260.304 156.538 260.046C156.923 259.709 157.126 259.121 157.173 258.274H157.573V263.448H157.173C157.072 262.727 156.97 262.257 156.868 262.053C156.734 261.802 156.523 261.598 156.225 261.449C155.927 261.3 155.464 261.23 154.845 261.23H151.576V266.13C151.576 266.788 151.607 267.188 151.662 267.329C151.724 267.47 151.819 267.588 151.968 267.666C152.117 267.753 152.391 267.792 152.799 267.792H155.315C156.154 267.792 156.758 267.729 157.142 267.619C157.518 267.502 157.887 267.274 158.232 266.929C158.687 266.475 159.149 265.793 159.62 264.883H160.067L158.789 268.607H147.342V268.207H147.867C148.22 268.207 148.549 268.121 148.863 267.956C149.098 267.839 149.263 267.666 149.341 267.431C149.427 267.196 149.467 266.718 149.467 265.996V256.337C149.467 255.396 149.372 254.816 149.184 254.597C148.918 254.307 148.479 254.158 147.867 254.158H147.342V253.758H158.796L158.953 257.027H158.53C158.373 256.235 158.208 255.694 158.02 255.404C157.832 255.106 157.558 254.887 157.197 254.73C156.907 254.62 156.389 254.565 155.652 254.565H151.583L151.576 254.558Z" fill="black"/>
<path fill-rule="evenodd" clip-rule="evenodd" d="M166.809 258.572H171.498V258.972C171.2 258.972 170.988 259.027 170.87 259.129C170.753 259.231 170.69 259.364 170.69 259.537C170.69 259.709 170.823 259.991 171.09 260.36C171.168 260.477 171.294 260.658 171.458 260.909L172.18 262.053L173.003 260.909C173.536 260.195 173.803 259.74 173.803 259.544C173.803 259.388 173.74 259.254 173.614 259.145C173.489 259.035 173.293 258.98 173.011 258.98V258.58H176.374V258.98C176.014 259.003 175.7 259.098 175.433 259.278C175.073 259.521 174.587 260.062 173.967 260.893L172.595 262.72L175.088 266.342C175.7 267.228 176.139 267.761 176.406 267.941C176.664 268.122 177.009 268.224 177.425 268.247V268.631H172.681V268.247C173.011 268.247 173.269 268.169 173.45 268.028C173.591 267.926 173.661 267.792 173.661 267.62C173.661 267.447 173.426 267.024 172.956 266.342L171.49 264.202L169.882 266.342C169.404 267.008 169.161 267.408 169.161 267.534C169.161 267.706 169.24 267.871 169.404 268.012C169.569 268.161 169.812 268.239 170.141 268.247V268.631H166.872V268.247C167.131 268.208 167.358 268.122 167.562 267.973C167.836 267.761 168.307 267.22 168.957 266.35L171.043 263.543L169.153 260.783C168.612 259.991 168.205 259.497 167.907 259.294C167.609 259.09 167.248 258.988 166.801 258.988V258.588L166.809 258.572Z" fill="black"/>
<path fill-rule="evenodd" clip-rule="evenodd" d="M192.902 264.797C192.635 266.122 192.102 267.133 191.31 267.839C190.518 268.544 189.648 268.897 188.691 268.897C187.554 268.897 186.559 268.419 185.712 267.462C184.865 266.514 184.442 265.22 184.442 263.589C184.442 261.958 184.912 260.735 185.845 259.747C186.786 258.767 187.907 258.273 189.217 258.273C190.204 258.273 191.012 258.532 191.647 259.057C192.282 259.575 192.604 260.116 192.604 260.68C192.604 260.955 192.517 261.182 192.337 261.355C192.157 261.527 191.914 261.613 191.592 261.613C191.161 261.613 190.84 261.472 190.628 261.198C190.495 261.041 190.408 260.751 190.369 260.32C190.33 259.889 190.181 259.551 189.93 259.324C189.671 259.105 189.319 258.995 188.872 258.995C188.142 258.995 187.554 259.261 187.108 259.802C186.52 260.516 186.222 261.464 186.222 262.648C186.222 263.832 186.52 264.906 187.1 265.824C187.688 266.741 188.48 267.196 189.483 267.196C190.197 267.196 190.84 266.96 191.412 266.474C191.812 266.145 192.204 265.526 192.588 264.64L192.902 264.797Z" fill="black"/>
<path fill-rule="evenodd" clip-rule="evenodd" d="M201.933 262.358C201.933 263.84 202.286 265 203.015 265.847C203.745 266.686 204.599 267.109 205.587 267.109C206.238 267.109 206.81 266.929 207.296 266.568C207.782 266.216 208.19 265.588 208.519 264.71L208.856 264.93C208.7 265.941 208.261 266.851 207.524 267.674C206.787 268.489 205.861 268.905 204.756 268.905C203.556 268.905 202.521 268.434 201.667 267.501C200.812 266.561 200.381 265.306 200.381 263.722C200.381 262.013 200.82 260.673 201.698 259.716C202.576 258.76 203.682 258.281 205.007 258.281C206.128 258.281 207.053 258.65 207.774 259.395C208.496 260.132 208.856 261.127 208.856 262.366H201.933V262.358ZM201.933 261.731H206.575C206.536 261.088 206.465 260.633 206.348 260.375C206.167 259.967 205.893 259.645 205.532 259.418C205.172 259.183 204.795 259.065 204.403 259.065C203.799 259.065 203.258 259.3 202.78 259.771C202.302 260.241 202.028 260.892 201.941 261.731H201.933Z" fill="black"/>
<path fill-rule="evenodd" clip-rule="evenodd" d="M219.613 253.037V266.35C219.613 266.977 219.66 267.385 219.746 267.589C219.84 267.792 219.982 267.949 220.17 268.051C220.358 268.153 220.711 268.208 221.228 268.208V268.608H216.32V268.208C216.783 268.208 217.096 268.161 217.261 268.067C217.426 267.973 217.559 267.816 217.661 267.596C217.755 267.377 217.802 266.961 217.802 266.342V257.216C217.802 256.095 217.778 255.405 217.724 255.154C217.669 254.895 217.59 254.723 217.481 254.629C217.371 254.535 217.222 254.488 217.049 254.488C216.861 254.488 216.626 254.55 216.336 254.66L216.148 254.26L219.127 253.029H219.621L219.613 253.037Z" fill="black"/>
<path fill-rule="evenodd" clip-rule="evenodd" d="M231.781 253.037V266.35C231.781 266.977 231.828 267.385 231.914 267.589C232.009 267.792 232.15 267.949 232.338 268.051C232.526 268.153 232.879 268.208 233.396 268.208V268.608H228.488V268.208C228.951 268.208 229.264 268.161 229.429 268.067C229.594 267.973 229.727 267.816 229.829 267.596C229.923 267.377 229.97 266.961 229.97 266.342V257.216C229.97 256.095 229.947 255.405 229.892 255.154C229.837 254.895 229.758 254.723 229.649 254.629C229.539 254.535 229.39 254.488 229.217 254.488C229.029 254.488 228.794 254.55 228.504 254.66L228.316 254.26L231.295 253.029H231.789L231.781 253.037Z" fill="black"/>
<path fill-rule="evenodd" clip-rule="evenodd" d="M242.154 262.358C242.154 263.84 242.507 265 243.236 265.847C243.965 266.686 244.827 267.109 245.807 267.109C246.458 267.109 247.031 266.929 247.517 266.568C248.003 266.216 248.41 265.588 248.74 264.71L249.077 264.93C248.92 265.941 248.481 266.851 247.744 267.674C247.007 268.489 246.082 268.905 244.976 268.905C243.777 268.905 242.742 268.434 241.887 267.501C241.033 266.561 240.602 265.306 240.602 263.722C240.602 262.013 241.041 260.673 241.919 259.716C242.797 258.76 243.902 258.281 245.227 258.281C246.348 258.281 247.274 258.65 247.995 259.395C248.716 260.132 249.077 261.127 249.077 262.366H242.154V262.358ZM242.154 261.731H246.795C246.756 261.088 246.686 260.633 246.568 260.375C246.388 259.967 246.113 259.645 245.753 259.418C245.392 259.183 245.016 259.065 244.624 259.065C244.02 259.065 243.479 259.3 243.001 259.771C242.522 260.241 242.248 260.892 242.162 261.731H242.154Z" fill="black"/>
<path fill-rule="evenodd" clip-rule="evenodd" d="M259.3 260.382C260.477 258.979 261.59 258.281 262.648 258.281C263.197 258.281 263.668 258.422 264.06 258.689C264.459 258.963 264.765 259.41 265 260.037C265.157 260.477 265.236 261.151 265.236 262.052V266.341C265.236 266.968 265.29 267.399 265.392 267.627C265.471 267.807 265.604 267.948 265.777 268.05C265.957 268.152 266.286 268.207 266.764 268.207V268.607H261.809V268.207H262.021C262.484 268.207 262.813 268.136 262.993 267.995C263.174 267.854 263.307 267.643 263.377 267.368C263.409 267.258 263.424 266.913 263.424 266.341V262.209C263.424 261.292 263.307 260.626 263.072 260.21C262.836 259.794 262.444 259.591 261.88 259.591C261.018 259.591 260.155 260.069 259.3 261.018V266.341C259.3 267.015 259.34 267.431 259.418 267.595C259.52 267.807 259.661 267.956 259.841 268.058C260.022 268.152 260.382 268.207 260.931 268.207V268.607H255.953V268.207H256.172C256.682 268.207 257.027 268.082 257.207 267.823C257.387 267.564 257.474 267.07 257.474 266.349V262.625C257.474 261.425 257.45 260.688 257.395 260.429C257.34 260.163 257.254 259.983 257.144 259.889C257.035 259.794 256.878 259.747 256.69 259.747C256.486 259.747 256.243 259.802 255.961 259.912L255.796 259.512L258.822 258.281H259.293V260.382H259.3Z" fill="black"/>
<path fill-rule="evenodd" clip-rule="evenodd" d="M282.053 264.797C281.786 266.122 281.253 267.133 280.461 267.839C279.669 268.544 278.799 268.897 277.843 268.897C276.706 268.897 275.71 268.419 274.863 267.462C274.017 266.514 273.593 265.22 273.593 263.589C273.593 261.958 274.064 260.735 274.997 259.747C275.937 258.767 277.059 258.273 278.368 258.273C279.356 258.273 280.163 258.532 280.798 259.057C281.434 259.575 281.755 260.116 281.755 260.68C281.755 260.955 281.669 261.182 281.488 261.355C281.308 261.527 281.065 261.613 280.744 261.613C280.312 261.613 279.991 261.472 279.779 261.198C279.646 261.041 279.56 260.751 279.52 260.32C279.481 259.889 279.332 259.551 279.081 259.324C278.823 259.105 278.47 258.995 278.023 258.995C277.294 258.995 276.706 259.261 276.259 259.802C275.671 260.516 275.373 261.464 275.373 262.648C275.373 263.832 275.671 264.906 276.251 265.824C276.839 266.741 277.631 267.196 278.635 267.196C279.348 267.196 279.991 266.96 280.563 266.474C280.963 266.145 281.355 265.526 281.739 264.64L282.053 264.797Z" fill="black"/>
<path fill-rule="evenodd" clip-rule="evenodd" d="M291.077 262.358C291.077 263.84 291.43 265 292.159 265.847C292.888 266.686 293.743 267.109 294.731 267.109C295.381 267.109 295.954 266.929 296.44 266.568C296.926 266.216 297.334 265.588 297.663 264.71L298 264.93C297.843 265.941 297.404 266.851 296.667 267.674C295.93 268.489 295.005 268.905 293.9 268.905C292.7 268.905 291.665 268.434 290.81 267.501C289.956 266.561 289.525 265.306 289.525 263.722C289.525 262.013 289.964 260.673 290.842 259.716C291.72 258.76 292.825 258.281 294.15 258.281C295.272 258.281 296.197 258.65 296.918 259.395C297.639 260.132 298 261.127 298 262.366H291.077V262.358ZM291.077 261.731H295.718C295.679 261.088 295.609 260.633 295.491 260.375C295.311 259.967 295.036 259.645 294.676 259.418C294.315 259.183 293.939 259.065 293.547 259.065C292.943 259.065 292.402 259.3 291.924 259.771C291.446 260.241 291.171 260.892 291.085 261.731H291.077Z" fill="black"/>
<path fill-rule="evenodd" clip-rule="evenodd" d="M78.4809 168.941C78.4809 168.941 100.504 173.089 118.678 183.093C136.852 193.097 148.769 203.768 148.769 204.152C148.769 204.536 160.655 192.987 178.546 183.03C196.43 173.073 218.649 168.941 218.649 168.941V177.895C218.649 177.895 203.846 179.973 184.991 189.898C166.127 199.824 154.947 210.942 154.947 210.957V211.153V217.261L154.853 217.512L154.735 217.731L154.578 217.959L154.398 218.155L154.178 218.335L153.951 218.484L153.7 218.609L153.465 218.696H144.574L144.284 218.633L144.018 218.547L143.759 218.437L143.516 218.264L143.281 218.029L143.108 217.778L142.967 217.551L142.889 217.292V211.326C142.889 211.326 129.513 199.079 114.962 191.255C100.41 183.422 78.4025 177.879 78.4574 177.911V168.957L78.4809 168.941Z" fill="black"/>
<path fill-rule="evenodd" clip-rule="evenodd" d="M78.4809 193.779C78.4809 193.779 100.504 197.927 118.678 207.931C136.852 217.935 148.769 228.606 148.769 228.99C148.769 229.374 160.655 217.825 178.546 207.868C196.43 197.911 218.649 193.779 218.649 193.779V202.733C218.649 202.733 203.846 204.811 184.991 214.736C166.135 224.662 154.947 235.78 154.947 235.795V235.991V242.099L154.853 242.35L154.735 242.569L154.578 242.797L154.398 242.993L154.178 243.173L153.951 243.322L153.7 243.447L153.465 243.534H144.574L144.284 243.471L144.018 243.385L143.759 243.275L143.516 243.102L143.281 242.867L143.108 242.616L142.967 242.389L142.889 242.13V236.164C142.889 236.164 129.513 223.917 114.962 216.085C100.41 208.252 78.4025 202.709 78.4574 202.741V193.787L78.4809 193.779Z" fill="#999999"/>
<path fill-rule="evenodd" clip-rule="evenodd" d="M149.004 0C211.42 0 262.319 50.9067 262.319 113.315C262.319 142.661 251.06 169.459 232.652 189.616L227.046 184.011C244.02 165.296 254.393 140.474 254.393 113.315C254.393 55.2738 207.053 7.92649 149.004 7.92649C90.9547 7.92649 43.6232 55.2738 43.6232 113.315C43.6232 140.387 53.9253 165.123 70.7975 183.822L65.1839 189.436C46.8769 169.294 35.6888 142.575 35.6888 113.323C35.6888 50.9067 86.5956 0 149.004 0Z" fill="#293990"/>
<path fill-rule="evenodd" clip-rule="evenodd" d="M102.684 81.0368C105.091 81.5543 106.894 82.3696 108.094 83.5065C109.748 85.0824 110.579 87.0032 110.579 89.2847C110.579 91.0174 110.038 92.6796 108.94 94.2633C107.843 95.847 106.353 96.9995 104.44 97.7287C102.543 98.4578 99.634 98.8263 95.7217 98.8263H79.3278V97.8855H80.6214C82.064 97.8855 83.0989 97.4229 83.7261 96.4978C84.1182 95.9019 84.3142 94.6239 84.3142 92.6796V70.1545C84.3142 67.9985 84.0711 66.6421 83.5772 66.0854C82.9108 65.3328 81.9307 64.9565 80.6214 64.9565H79.3278V64.0156H94.3262C97.1251 64.0156 99.3674 64.2195 101.053 64.6272C103.617 65.2465 105.569 66.3363 106.918 67.9044C108.266 69.4724 108.94 71.2679 108.94 73.3063C108.94 75.0469 108.415 76.6071 107.357 77.9869C106.298 79.359 104.738 80.3861 102.676 81.0525L102.684 81.0368ZM89.2535 79.6099C89.8807 79.7353 90.6099 79.8216 91.4174 79.8843C92.2328 79.947 93.1266 79.9705 94.0988 79.9705C96.592 79.9705 98.4736 79.6961 99.7281 79.163C100.983 78.6298 101.947 77.8066 102.605 76.6933C103.264 75.5878 103.593 74.3804 103.593 73.0711C103.593 71.0405 102.762 69.3156 101.108 67.8809C99.4537 66.4539 97.0389 65.7405 93.8714 65.7405C92.1622 65.7405 90.6256 65.9208 89.2614 66.2971V79.6099H89.2535ZM89.2535 96.2939C91.2371 96.7565 93.2128 96.9839 95.1415 96.9839C98.2463 96.9839 100.622 96.2861 102.253 94.8905C103.883 93.495 104.691 91.7779 104.691 89.7238C104.691 88.3753 104.315 87.0738 103.554 85.8272C102.801 84.5728 101.594 83.5927 99.9398 82.8793C98.2855 82.158 96.2313 81.8051 93.7852 81.8051C92.7267 81.8051 91.8251 81.8208 91.0725 81.86C90.3198 81.8914 89.7161 81.9541 89.2535 82.0325V96.2861V96.2939Z" fill="black"/>
<path fill-rule="evenodd" clip-rule="evenodd" d="M148.98 98.8263H139.658L127.835 82.5499C126.989 82.5813 126.299 82.6048 125.758 82.6048C125.538 82.6048 125.303 82.597 125.06 82.5891C124.809 82.5813 124.55 82.5734 124.284 82.5578V92.6952C124.284 94.8826 124.519 96.239 125.005 96.7643C125.656 97.5169 126.628 97.8933 127.922 97.8933H129.278V98.8341H114.366V97.8933H115.667C117.141 97.8933 118.192 97.415 118.819 96.4585C119.18 95.9332 119.352 94.6709 119.352 92.6952V70.1702C119.352 67.9827 119.117 66.6264 118.631 66.1011C117.964 65.3484 116.977 64.9721 115.667 64.9721H114.366V64.0312H127.036C130.736 64.0312 133.457 64.2978 135.213 64.8388C136.977 65.3798 138.459 66.3755 139.674 67.8259C140.897 69.2685 141.509 70.9934 141.509 73.0005C141.509 75.1487 140.811 76.999 139.415 78.5749C138.02 80.1508 135.864 81.2641 132.931 81.9149L140.137 91.8876C141.783 94.177 143.194 95.7137 144.37 96.4664C145.546 97.2269 147.083 97.6973 148.98 97.909V98.8498V98.8263ZM124.284 80.9113C124.605 80.9113 124.887 80.9113 125.123 80.9191C125.358 80.927 125.554 80.9348 125.703 80.9348C128.988 80.9348 131.465 80.2135 133.127 78.7788C134.797 77.3362 135.628 75.5094 135.628 73.2827C135.628 71.0561 134.954 69.3391 133.614 67.9749C132.265 66.6185 130.477 65.9364 128.266 65.9364C127.286 65.9364 125.954 66.0932 124.284 66.4068V80.9035V80.9113Z" fill="black"/>
<path fill-rule="evenodd" clip-rule="evenodd" d="M172.556 87.2158H159.071L156.742 92.6648C156.162 94.0133 155.864 95.0247 155.864 95.6911C155.864 96.2164 156.115 96.6868 156.625 97.0945C157.126 97.4865 158.216 97.7531 159.894 97.8707V98.8115H148.918V97.8707C150.368 97.6198 151.309 97.2827 151.732 96.875C152.61 96.0518 153.567 94.3818 154.633 91.8651L166.88 63.209H167.75L179.855 92.1709C180.828 94.4994 181.713 96.0047 182.505 96.7025C183.305 97.3925 184.403 97.7766 185.83 97.8707V98.8115H172.109V97.8707C173.489 97.8002 174.43 97.5728 174.916 97.1808C175.41 96.7888 175.645 96.3027 175.645 95.7382C175.645 94.9855 175.3 93.7938 174.618 92.1709L172.564 87.2158H172.556ZM171.764 85.3263L165.9 71.2766L159.878 85.3263H171.764Z" fill="black"/>
<path fill-rule="evenodd" clip-rule="evenodd" d="M218.029 63.2148L218.821 75.0301H218.029C216.971 71.4941 215.466 68.9382 213.506 67.3859C211.546 65.8256 209.201 65.0495 206.449 65.0495C204.16 65.0495 202.075 65.6375 200.216 66.8057C198.366 67.9817 196.9 69.8399 195.834 72.4193C194.775 74.9831 194.242 78.1819 194.242 81.9922C194.242 85.144 194.744 87.8724 195.747 90.1853C196.751 92.4982 198.272 94.2622 200.279 95.501C202.302 96.7319 204.599 97.3513 207.186 97.3513C209.437 97.3513 211.42 96.873 213.137 95.9087C214.862 94.9443 216.752 93.0313 218.806 90.1618L219.605 90.6871C217.865 93.7761 215.834 96.0341 213.513 97.4689C211.193 98.8958 208.441 99.6171 205.25 99.6171C199.503 99.6171 195.042 97.4846 191.89 93.2038C189.538 90.0207 188.354 86.273 188.354 81.9609C188.354 78.4876 189.13 75.2888 190.683 72.3879C192.235 69.4714 194.368 67.2212 197.08 65.6218C199.801 64.0224 202.772 63.2227 205.987 63.2227C208.488 63.2227 210.958 63.8342 213.396 65.073C214.109 65.4493 214.619 65.6375 214.925 65.6375C215.379 65.6375 215.779 65.4728 216.124 65.1514C216.571 64.6888 216.885 64.0459 217.073 63.2227H218.014L218.029 63.2148Z" fill="black"/>
<path fill-rule="evenodd" clip-rule="evenodd" d="M71.8638 114.123V113.559H79.1709V114.123H78.3947C77.5793 114.123 76.9521 114.46 76.5131 115.15C76.3014 115.472 76.1916 116.201 76.1916 117.353V125.782C76.1916 127.867 75.9878 129.482 75.5722 130.635C75.1567 131.787 74.3491 132.775 73.1339 133.59C71.9265 134.414 70.2879 134.821 68.2024 134.821C65.9366 134.821 64.2196 134.429 63.0514 133.637C61.8753 132.853 61.0443 131.795 60.5582 130.462C60.2289 129.553 60.0642 127.851 60.0642 125.343V117.22C60.0642 115.942 59.8839 115.111 59.5389 114.711C59.1861 114.311 58.6216 114.115 57.8376 114.115H57.0614V113.551H66.0306V114.115H65.2388C64.3842 114.115 63.7727 114.39 63.4042 114.923C63.1454 115.291 63.02 116.06 63.02 117.22V126.275C63.02 127.083 63.0906 128.008 63.2395 129.051C63.3885 130.094 63.6551 130.901 64.0471 131.489C64.4391 132.069 64.9957 132.548 65.7249 132.932C66.454 133.308 67.3478 133.496 68.4141 133.496C69.7704 133.496 70.9935 133.198 72.0598 132.61C73.1339 132.022 73.8631 131.254 74.2551 130.337C74.6471 129.412 74.8431 127.844 74.8431 125.64V117.228C74.8431 115.934 74.702 115.119 74.4119 114.797C74.012 114.35 73.424 114.123 72.64 114.123H71.8638Z" fill="black"/>
<path fill-rule="evenodd" clip-rule="evenodd" d="M79.1002 113.559H84.6903L97.4307 129.169V117.165C97.4307 115.887 97.2818 115.087 96.9995 114.766C96.6153 114.335 96.0116 114.123 95.1884 114.123H94.4593V113.559H101.766V114.123H101.022C100.128 114.123 99.5005 114.39 99.1242 114.923C98.8968 115.252 98.7871 115.997 98.7871 117.165V134.68H98.2304L84.5492 117.933V130.737C84.5492 132.015 84.6903 132.814 84.9647 133.136C85.3567 133.567 85.9604 133.779 86.7837 133.779H87.5285V134.343H80.2214V133.779H80.9505C81.8443 133.779 82.4794 133.512 82.8557 132.979C83.0831 132.65 83.1928 131.905 83.1928 130.737V116.279C82.5891 115.574 82.1344 115.111 81.8208 114.884C81.5072 114.656 81.0524 114.452 80.4487 114.249C80.1508 114.162 79.7039 114.115 79.1002 114.115V113.551V113.559Z" fill="black"/>
<path fill-rule="evenodd" clip-rule="evenodd" d="M111.849 133.786V134.351H102.943V133.786H103.679C104.542 133.786 105.161 133.536 105.553 133.042C105.796 132.712 105.922 131.928 105.922 130.682V117.228C105.922 116.177 105.851 115.479 105.726 115.15C105.624 114.891 105.412 114.672 105.091 114.492C104.644 114.249 104.173 114.123 103.679 114.123H102.943V113.559H111.849V114.123H111.104C110.257 114.123 109.638 114.374 109.254 114.868C108.995 115.197 108.87 115.981 108.87 117.228V130.682C108.87 131.732 108.94 132.43 109.066 132.759C109.168 133.018 109.379 133.238 109.709 133.418C110.148 133.661 110.61 133.786 111.096 133.786H111.841H111.849Z" fill="black"/>
<path fill-rule="evenodd" clip-rule="evenodd" d="M134.852 113.559V114.123C134.123 114.256 133.559 114.492 133.182 114.837C132.641 115.338 132.163 116.115 131.747 117.149L124.534 134.821H123.97L116.2 116.914C115.8 115.989 115.518 115.425 115.361 115.221C115.103 114.899 114.789 114.648 114.413 114.468C114.044 114.288 113.542 114.178 112.907 114.123V113.559H121.383V114.123C120.418 114.217 119.799 114.382 119.509 114.617C119.227 114.852 119.078 115.15 119.078 115.519C119.078 116.028 119.313 116.828 119.783 117.91L125.068 130.078L129.976 118.059C130.454 116.875 130.697 116.052 130.697 115.589C130.697 115.299 130.548 115.009 130.25 114.742C129.952 114.476 129.45 114.28 128.752 114.17C128.698 114.162 128.611 114.147 128.494 114.123V113.559H134.852Z" fill="black"/>
<path fill-rule="evenodd" clip-rule="evenodd" d="M141.807 114.688V122.904H146.385C147.569 122.904 148.361 122.724 148.761 122.371C149.294 121.901 149.584 121.077 149.647 119.893H150.211V127.138H149.647C149.506 126.126 149.357 125.468 149.216 125.186C149.035 124.833 148.73 124.551 148.314 124.347C147.898 124.143 147.256 124.041 146.385 124.041H141.807V130.901C141.807 131.818 141.846 132.383 141.924 132.579C142.01 132.775 142.152 132.94 142.355 133.057C142.559 133.175 142.951 133.238 143.524 133.238H147.044C148.212 133.238 149.067 133.151 149.6 132.994C150.125 132.83 150.643 132.508 151.129 132.03C151.764 131.395 152.407 130.439 153.073 129.168H153.7L151.905 134.374H135.887V133.81H136.624C137.118 133.81 137.581 133.692 138.02 133.457C138.349 133.292 138.576 133.049 138.686 132.72C138.804 132.391 138.867 131.724 138.867 130.705V117.189C138.867 115.871 138.733 115.064 138.467 114.758C138.098 114.35 137.487 114.147 136.624 114.147H135.887V113.582H151.913L152.132 118.161H151.536C151.325 117.055 151.089 116.303 150.823 115.887C150.564 115.472 150.172 115.158 149.67 114.946C149.263 114.797 148.541 114.719 147.514 114.719H141.822L141.807 114.688Z" fill="black"/>
<path fill-rule="evenodd" clip-rule="evenodd" d="M175.606 134.351H170.039L162.975 124.629C162.466 124.653 162.058 124.66 161.736 124.66C161.603 124.66 161.462 124.66 161.321 124.653C161.172 124.653 161.015 124.645 160.858 124.629V130.682C160.858 131.991 161 132.799 161.29 133.112C161.674 133.559 162.254 133.786 163.03 133.786H163.838V134.351H154.931V133.786H155.707C156.585 133.786 157.213 133.496 157.589 132.932C157.801 132.618 157.91 131.866 157.91 130.682V117.228C157.91 115.919 157.769 115.111 157.479 114.797C157.079 114.35 156.491 114.123 155.707 114.123H154.931V113.559H162.497C164.708 113.559 166.331 113.723 167.381 114.037C168.432 114.358 169.318 114.954 170.047 115.817C170.776 116.679 171.145 117.706 171.145 118.906C171.145 120.184 170.729 121.297 169.898 122.23C169.059 123.171 167.773 123.837 166.025 124.229L170.329 130.18C171.309 131.552 172.156 132.461 172.862 132.916C173.56 133.371 174.485 133.653 175.614 133.779V134.343L175.606 134.351ZM160.858 123.657C161.054 123.657 161.219 123.657 161.36 123.657C161.501 123.657 161.619 123.665 161.705 123.665C163.665 123.665 165.147 123.233 166.135 122.379C167.131 121.516 167.632 120.427 167.632 119.102C167.632 117.777 167.232 116.75 166.433 115.934C165.625 115.127 164.559 114.719 163.242 114.719C162.654 114.719 161.862 114.813 160.866 115.001V123.657H160.858Z" fill="black"/>
<path fill-rule="evenodd" clip-rule="evenodd" d="M189.71 113.088V120.27H189.146C188.966 118.89 188.636 117.792 188.158 116.977C187.68 116.161 187.006 115.511 186.12 115.032C185.241 114.554 184.332 114.311 183.391 114.311C182.325 114.311 181.447 114.632 180.749 115.283C180.059 115.926 179.706 116.671 179.706 117.502C179.706 118.137 179.926 118.717 180.365 119.235C181 119.995 182.505 121.022 184.889 122.3C186.833 123.343 188.158 124.143 188.872 124.699C189.585 125.256 190.134 125.915 190.51 126.667C190.894 127.428 191.082 128.212 191.082 129.043C191.082 130.619 190.471 131.967 189.256 133.112C188.033 134.249 186.457 134.821 184.544 134.821C183.94 134.821 183.375 134.774 182.842 134.68C182.521 134.625 181.87 134.437 180.874 134.115C179.879 133.794 179.252 133.629 178.985 133.629C178.718 133.629 178.522 133.708 178.381 133.857C178.232 134.014 178.123 134.335 178.052 134.821H177.487V127.702H178.052C178.319 129.192 178.671 130.313 179.126 131.05C179.573 131.795 180.263 132.406 181.188 132.892C182.113 133.386 183.125 133.629 184.23 133.629C185.508 133.629 186.519 133.292 187.256 132.618C188.001 131.936 188.37 131.136 188.37 130.219C188.37 129.709 188.229 129.192 187.954 128.666C187.672 128.141 187.241 127.655 186.645 127.2C186.245 126.895 185.155 126.244 183.376 125.248C181.596 124.26 180.326 123.468 179.573 122.873C178.82 122.284 178.248 121.626 177.856 120.912C177.464 120.199 177.268 119.407 177.268 118.553C177.268 117.063 177.84 115.777 178.985 114.703C180.13 113.629 181.596 113.088 183.36 113.088C184.465 113.088 185.633 113.362 186.88 113.895C187.452 114.154 187.86 114.28 188.095 114.28C188.362 114.28 188.581 114.201 188.746 114.044C188.911 113.88 189.052 113.566 189.154 113.088H189.718H189.71Z" fill="black"/>
<path fill-rule="evenodd" clip-rule="evenodd" d="M202.443 133.786V134.351H193.536V133.786H194.273C195.136 133.786 195.755 133.536 196.147 133.042C196.39 132.712 196.516 131.928 196.516 130.682V117.228C196.516 116.177 196.445 115.479 196.32 115.15C196.218 114.891 196.006 114.672 195.685 114.492C195.238 114.249 194.767 114.123 194.273 114.123H193.536V113.559H202.443V114.123H201.698C200.851 114.123 200.232 114.374 199.848 114.868C199.589 115.197 199.464 115.981 199.464 117.228V130.682C199.464 131.732 199.534 132.43 199.66 132.759C199.762 133.018 199.973 133.238 200.303 133.418C200.742 133.661 201.204 133.786 201.69 133.786H202.435H202.443Z" fill="black"/>
<path fill-rule="evenodd" clip-rule="evenodd" d="M221.354 113.559L221.573 118.443H220.993C220.876 117.589 220.727 116.969 220.531 116.601C220.209 116.013 219.794 115.574 219.268 115.291C218.743 115.009 218.053 114.868 217.191 114.868H214.266V130.737C214.266 132.015 214.4 132.814 214.682 133.136C215.066 133.567 215.662 133.779 216.469 133.779H217.183V134.343H208.339V133.779H209.084C209.97 133.779 210.597 133.512 210.973 132.979C211.201 132.65 211.31 131.905 211.31 130.737V114.868H208.817C207.845 114.868 207.155 114.939 206.747 115.08C206.214 115.276 205.767 115.644 205.383 116.201C205.007 116.75 204.78 117.494 204.709 118.435H204.129L204.348 113.551H221.346L221.354 113.559Z" fill="black"/>
<path fill-rule="evenodd" clip-rule="evenodd" d="M237.332 113.559H244.584V114.123H244.185C243.918 114.123 243.534 114.241 243.016 114.476C242.507 114.711 242.044 115.048 241.621 115.487C241.205 115.926 240.688 116.648 240.076 117.643L235.082 125.452V130.744C235.082 132.022 235.231 132.822 235.513 133.144C235.905 133.575 236.525 133.786 237.371 133.786H238.053V134.351H229.147V133.786H229.892C230.778 133.786 231.405 133.52 231.781 132.987C232.009 132.657 232.118 131.913 232.118 130.744V125.883L226.434 117.095C225.76 116.083 225.305 115.44 225.062 115.189C224.819 114.931 224.325 114.633 223.565 114.272C223.361 114.17 223.071 114.123 222.679 114.123V113.559H231.546V114.123H231.083C230.605 114.123 230.158 114.241 229.758 114.46C229.359 114.688 229.155 115.017 229.155 115.472C229.155 115.84 229.468 116.507 230.096 117.471L234.4 124.166L238.5 117.761C239.12 116.797 239.418 116.083 239.418 115.613C239.418 115.323 239.347 115.072 239.198 114.844C239.049 114.617 238.837 114.445 238.563 114.319C238.289 114.186 237.873 114.123 237.324 114.123V113.559H237.332Z" fill="black"/>
<path fill-rule="evenodd" clip-rule="evenodd" d="M78.4809 143.43C78.4809 143.43 100.504 147.577 118.678 157.581C136.852 167.585 148.769 178.256 148.769 178.64C148.769 179.024 160.655 167.476 178.546 157.519C196.43 147.561 218.649 143.43 218.649 143.43V152.383C218.649 152.383 203.846 154.461 184.991 164.387C166.127 174.312 154.947 185.43 154.947 185.446V185.642V191.749L154.853 192L154.735 192.22L154.578 192.447L154.398 192.643L154.178 192.823L153.951 192.972L153.7 193.098L153.465 193.184H144.574L144.284 193.121L144.018 193.035L143.759 192.925L143.516 192.753L143.281 192.517L143.108 192.267L142.967 192.039L142.889 191.78V185.814C142.889 185.814 129.513 173.568 114.962 165.735C100.41 157.903 78.4025 152.36 78.4574 152.391V143.438L78.4809 143.43Z" fill="#293990"/>
</svg>
