<svg width="699" height="111" viewBox="0 0 699 111" fill="none" xmlns="http://www.w3.org/2000/svg">
<path d="M151.943 87.8699C149.502 92.4465 146.145 97.0231 142.179 100.684C134.857 107.092 125.703 110.448 115.635 110.448C96.4131 110.448 76.276 98.2435 76.276 68.6481C76.276 44.8498 90.9211 26.2383 115.025 26.2383C130.585 26.2383 140.348 33.866 145.23 40.8834C150.112 47.9009 153.163 60.4103 152.858 70.7839H90.3109C90.616 87.2597 101.905 97.9384 115.635 97.9384C122.042 97.9384 127.534 96.1078 132.111 92.1414C135.772 89.0903 138.518 85.1239 140.348 81.1575L151.943 87.8699ZM138.213 59.4949C135.772 46.9856 126.314 38.7477 114.719 38.7477C103.125 38.7477 93.362 47.5958 91.2262 59.4949H138.213Z" fill="#06345C"/>
<path d="M187.947 41.189V108.313H174.217V41.189H165.674V28.3745H174.217V0.304688H187.947V28.3745H201.677V41.189H187.947Z" fill="#06345C"/>
<path d="M215.099 28.374H228.829V36.917C230.049 34.7813 236.151 26.2383 246.83 26.2383C251.101 26.2383 255.678 27.7638 259.034 29.5945L252.627 42.1038C249.576 39.9681 246.525 39.3579 244.389 39.3579C238.897 39.3579 235.236 41.7987 233.1 44.2396C230.659 47.2907 228.524 52.7826 228.524 65.9022V108.007H214.794V28.374H215.099Z" fill="#06345C"/>
<path d="M329.208 28.374H342.938V108.312H329.208V97.0231C324.631 103.125 315.783 110.448 301.748 110.448C281.611 110.448 262.695 96.1078 262.695 68.0379C262.695 40.5783 281.306 26.2383 301.748 26.2383C317.309 26.2383 325.547 34.7813 329.208 39.663V28.374ZM277.34 68.343C277.34 85.429 287.103 98.2435 303.579 98.2435C320.665 98.2435 330.123 84.2086 330.123 68.343C330.123 47.5958 315.783 38.7477 303.579 38.7477C289.849 38.7477 277.34 48.8162 277.34 68.343Z" fill="#06345C"/>
<path d="M64.3776 108.313H50.6478V66.5129C50.6478 60.7159 50.3426 51.2575 44.8507 44.8503C40.8843 39.9686 35.6975 38.7482 30.8158 38.7482C24.7137 38.7482 20.4422 41.189 17.6962 44.5452C14.34 48.8167 14.0349 54.3086 14.0349 59.1903V77.8019H0V58.8852C0 50.0371 0.610214 43.3248 4.5766 37.5277C9.45832 30.2052 18.0013 26.5439 27.4596 26.5439C40.8843 26.5439 47.9018 34.4767 50.3427 37.8328V0.304688H64.0725V108.313H64.3776Z" fill="#06345C"/>
<path d="M161.707 0H50.3425V3.05107H161.707V0Z" fill="#06345C"/>
<path d="M343.243 0H201.369V3.05107H343.243V0Z" fill="#06345C"/>
<path d="M404.265 25.0176C398.163 25.0176 392.976 26.238 388.4 28.6789C383.823 31.1197 379.857 35.0861 376.806 39.9678L375.28 42.1036V28.0686H366.127V106.786H375.585V65.5968C375.585 54.613 377.721 46.6802 381.687 41.4934C385.959 36.3065 392.366 33.5606 400.909 33.5606C408.232 33.5606 413.419 35.6963 417.08 39.6627C420.436 43.6291 422.267 49.7312 422.267 57.9691V106.786H432.03V53.0874C432.03 44.2393 429.589 37.2219 424.707 32.3401C420.131 27.4584 413.113 25.0176 404.265 25.0176Z" fill="#06345C"/>
<path d="M486.645 25.0176C475.356 25.0176 465.897 28.984 458.88 36.9167C451.862 44.8495 448.201 55.2232 448.201 68.3428C448.201 80.8521 451.862 91.2258 458.88 98.8535C465.897 106.481 475.356 110.448 486.95 110.448C495.493 110.448 502.51 108.617 508.307 104.956C513.799 101.294 518.681 95.4973 522.647 87.8696L513.799 82.9879C510.748 89.09 507.087 93.9717 502.815 97.0228C498.239 100.379 492.747 101.905 486.95 101.905C478.407 101.905 471.694 98.8535 466.813 92.7513C461.931 86.6492 459.185 78.4113 458.88 68.0377V67.1223H522.647V65.5968C522.647 53.3925 519.291 43.6291 512.884 36.3065C506.172 28.6789 497.323 25.0176 486.645 25.0176ZM459.49 58.8844V57.9691C460.1 50.9517 462.846 45.1546 467.728 40.578C472.305 36.3065 478.407 34.1708 485.119 34.1708C492.747 34.1708 498.849 36.3065 503.12 40.578C507.697 44.8495 510.138 50.6466 510.748 58.2742V59.1896H459.49V58.8844Z" fill="#06345C"/>
<path d="M630.654 28.0686L609.297 87.2594L584.278 25.0176L558.954 87.2594L537.596 28.0686H527.528L558.344 110.448L584.278 46.6802L609.907 110.448L640.723 28.0686H630.654Z" fill="#06345C"/>
<path d="M653.539 105.873C658.421 108.924 664.218 110.45 670.625 110.45C679.168 110.45 686.186 108.314 691.372 104.043C696.559 99.7711 699 93.9741 699 86.9567C699 80.8545 697.474 75.9728 694.728 72.3115C691.677 68.9554 685.88 65.5992 677.337 62.5481C669.405 59.8021 664.218 57.6664 661.777 55.2255C659.031 52.7847 657.811 50.0387 657.811 46.3774C657.811 42.7162 659.031 39.6651 661.777 37.2242C664.523 34.7834 667.879 33.5629 671.845 33.5629C676.117 33.5629 680.083 34.4783 683.134 36.614C685.88 38.4447 688.016 41.1906 689.542 44.8519L698.39 39.9702C696.254 35.0885 693.203 31.4272 688.931 28.9863C684.355 26.2404 679.168 24.7148 672.761 24.7148C665.438 24.7148 659.336 26.8506 654.454 31.1221C649.878 35.3936 647.437 40.8855 647.437 47.2928C647.437 52.1745 648.962 56.446 652.319 59.8021C655.675 63.1583 661.472 66.5145 669.71 69.8707C670.32 70.1758 671.235 70.4809 672.456 71.0911C683.745 75.3626 689.237 80.8545 689.237 87.5669C689.237 91.8384 687.711 95.1945 684.66 97.6354C681.609 100.076 677.948 101.297 673.066 101.297C668.184 101.297 663.913 100.076 660.557 97.6354C657.2 95.4997 654.759 92.1435 652.929 87.872L643.776 93.0588C645.301 98.8558 648.962 102.822 653.539 105.873Z" fill="#06345C"/>
</svg>
